<?xml version="1.0" standalone="no"?><!DOCTYPE svg PUBLIC "-//W3C//DTD SVG 1.1//EN" "http://www.w3.org/Graphics/SVG/1.1/DTD/svg11.dtd"><svg t="1642325287053" class="icon" viewBox="0 0 1024 1024" version="1.1" xmlns="http://www.w3.org/2000/svg" p-id="12668" width="32" height="32" xmlns:xlink="http://www.w3.org/1999/xlink"><defs><style type="text/css"></style></defs><path d="M682.048504 42.669354v256h255.088882v-64.004031L745.826772 42.669354zM299.427276 597.330646h425.145448v384H299.427276z" fill="#CCE4FF" p-id="12669"></path><path d="M469.483843 426.669354V643.668661L384.459591 558.329953l-60.141859 60.33537L512 807.000693l187.682268-188.33537-60.141859-60.33537L554.516157 643.668661V426.669354zM256.919181 1024h510.161638v-213.330646H682.056567v128H341.943433v-128H256.919181z" fill="#007AFF" p-id="12670"></path><path d="M724.572724 0H44.346457v1024h85.024252V85.330646h510.1697v256h255.088882V1024H979.653543V216.999307L763.452472 0h-38.879748z m170.048504 256h-170.048504V85.330646h3.628347l166.420157 167.000693v3.668661z" fill="#007AFF" p-id="12671"></path></svg>