<?xml version="1.0" standalone="no"?><!DOCTYPE svg PUBLIC "-//W3C//DTD SVG 1.1//EN" "http://www.w3.org/Graphics/SVG/1.1/DTD/svg11.dtd"><svg t="1642412595118" class="icon" viewBox="0 0 1024 1024" version="1.1" xmlns="http://www.w3.org/2000/svg" p-id="26376" width="48" height="48" xmlns:xlink="http://www.w3.org/1999/xlink"><defs><style type="text/css"></style></defs><path d="M720.75 270.36L540.15 330h42.31a66.43 66.43 0 0 1 8.62 0.47c-3.23 14.32-18.32 51.6-79.23 146.75L449.91 574C441.89 328 377 203.34 256.65 203.34c-55.3 0-106.11 35.39-151 105.18l-9.5 14.76s104.23-52.83 135.29-52.83c33.83 0 63.72 27.11 88.85 80.56 25.5 54.45 38.43 154.75 38.44 297.74l-2.18 94.87 96.3-18.62zM922.07 466c0-24.92-12.36-45.87-35.75-60.56C865 392.09 837 385.3 803.07 385.3c-30.77 0-67.67 5.82-109.68 17.29l-10.17 2.78-13.61 92.39h48.7l3.15-12c9.06-34.71 29.86-50.87 65.45-50.87 14.6 0 26 4 34.89 12.36 8.58 8 12.75 18.19 12.75 31 0 15.32-7.16 29.89-21.89 44.54-15 15-34.16 25.56-56.9 31.56-15.47-1.21-31.68-1.82-48.22-1.82h-10.36l-36 79.12 28.39-3.34a195.72 195.72 0 0 1 21.64-1.59c30.62 0 55.57 7.14 74.14 21.24 17.45 13.24 25.93 29.85 25.93 50.78 0 19.43-7.11 35.76-21.73 49.92-14.78 14.3-32 21.25-52.56 21.25-25.55 0-51.46-11.83-77-35.17l-11.46-10.48-64.23 65.21 21 9.55a265.09 265.09 0 0 0 110.4 24.12c47 0 88.74-14.47 123.95-43 36.21-29.35 54.57-64.46 54.57-104.35 0-32-12-72.89-63.56-100.31 60.73-31.21 91.41-67.92 91.41-109.48z" p-id="26377" fill="#1296db"></path></svg>